HIERARCHY
ROOT Hips
{
	OFFSET 0.00000 0.00000 0.00000
	CHANNELS 6 Xposition Yposition Zposition Zrotation Yrotation Xrotation 
	JOINT LHipJoint
	{
		OFFSET 0 0 0
		CHANNELS 3 Zrotation Yrotation Xrotation
		JOINT LeftUpLeg
		{
			OFFSET 1.80322 -1.53100 0.99595
			CHANNELS 3 Zrotation Yrotation Xrotation
			JOINT LeftLeg
			{
				OFFSET 2.25177 -6.18669 0.00000
				CHANNELS 3 Zrotation Yrotation Xrotation
				JOINT LeftFoot
				{
					OFFSET 2.26601 -6.22582 0.00000
					CHANNELS 3 Zrotation Yrotation Xrotation
					JOINT LeftToeBase
					{
						OFFSET 0.23701 -0.65119 2.15848
						CHANNELS 3 Zrotation Yrotation Xrotation
						End Site
						{
							OFFSET 0.00000 -0.00000 1.12949
						}
					}
				}
			}
		}
	}
	JOINT RHipJoint
	{
		OFFSET 0 0 0
		CHANNELS 3 Zrotation Yrotation Xrotation
		JOINT RightUpLeg
		{
			OFFSET -1.93977 -1.53100 0.99595
			CHANNELS 3 Zrotation Yrotation Xrotation
			JOINT RightLeg
			{
				OFFSET -2.28036 -6.26523 0.00000
				CHANNELS 3 Zrotation Yrotation Xrotation
				JOINT RightFoot
				{
					OFFSET -2.25490 -6.19528 0.00000
					CHANNELS 3 Zrotation Yrotation Xrotation
					JOINT RightToeBase
					{
						OFFSET -0.28375 -0.77960 2.23137
						CHANNELS 3 Zrotation Yrotation Xrotation
						End Site
						{
							OFFSET -0.00000 -0.00000 1.17899
						}
					}
				}
			}
		}
	}
	JOINT LowerBack
	{
		OFFSET 0 0 0
		CHANNELS 3 Zrotation Yrotation Xrotation
		JOINT Spine
		{
			OFFSET -0.00088 2.12090 -0.02806
			CHANNELS 3 Zrotation Yrotation Xrotation
			JOINT Spine1
			{
				OFFSET -0.00286 2.09666 0.12974
				CHANNELS 3 Zrotation Yrotation Xrotation
				JOINT Neck
				{
					OFFSET 0 0 0
					CHANNELS 3 Zrotation Yrotation Xrotation
					JOINT Neck1
					{
						OFFSET 0.07328 1.83526 0.07290
						CHANNELS 3 Zrotation Yrotation Xrotation
						JOINT Head
						{
							OFFSET -0.06683 1.74974 -0.49542
							CHANNELS 3 Zrotation Yrotation Xrotation
							End Site
							{
								OFFSET -0.03398 1.85163 -0.17573
							}
						}
					}
				}
				JOINT LeftShoulder
				{
					OFFSET 0 0 0
					CHANNELS 3 Zrotation Yrotation Xrotation
					JOINT LeftArm
					{
						OFFSET 3.02113 1.18018 0.40602
						CHANNELS 3 Zrotation Yrotation Xrotation
						JOINT LeftForeArm
						{
							OFFSET 4.58538 -0.00000 -0.00000
							CHANNELS 3 Zrotation Yrotation Xrotation
							JOINT LeftHand
							{
								OFFSET 2.68935 -0.00000 -0.00000
								CHANNELS 3 Zrotation Yrotation Xrotation
								JOINT LeftFingerBase
								{
									OFFSET 0 0 0
									CHANNELS 3 Zrotation Yrotation Xrotation
									JOINT LeftHandIndex1
									{
										OFFSET 0.58506 -0.00000 -0.00000
										CHANNELS 3 Zrotation Yrotation Xrotation
										End Site
										{
											OFFSET 0.47169 -0.00000 -0.00000
										}
									}
								}
								JOINT LThumb
								{
									OFFSET 0 0 0
									CHANNELS 3 Zrotation Yrotation Xrotation
									End Site
									{
										OFFSET 0.47889 -0.00000 0.47889
									}
								}
							}
						}
					}
				}
				JOINT RightShoulder
				{
					OFFSET 0 0 0
					CHANNELS 3 Zrotation Yrotation Xrotation
					JOINT RightArm
					{
						OFFSET -2.95074 1.18843 0.31430
						CHANNELS 3 Zrotation Yrotation Xrotation
						JOINT RightForeArm
						{
							OFFSET -4.47450 -0.00000 -0.00000
							CHANNELS 3 Zrotation Yrotation Xrotation
							JOINT RightHand
							{
								OFFSET -2.93896 -0.00000 -0.00000
								CHANNELS 3 Zrotation Yrotation Xrotation
								JOINT RightFingerBase
								{
									OFFSET 0 0 0
									CHANNELS 3 Zrotation Yrotation Xrotation
									JOINT RightHandIndex1
									{
										OFFSET -0.40509 -0.00000 -0.00000
										CHANNELS 3 Zrotation Yrotation Xrotation
										End Site
										{
											OFFSET -0.32660 -0.00000 -0.00000
										}
									}
								}
								JOINT RThumb
								{
									OFFSET 0 0 0
									CHANNELS 3 Zrotation Yrotation Xrotation
									End Site
									{
										OFFSET -0.33158 -0.00000 0.33158
									}
								}
							}
						}
					}
				}
			}
		}
	}
}
MOTION
Frames: 11
Frame Time: .0083333
0.6618 14.7585 -16.1097 -361.5640 -16.5931 -345.2850 0.0000 0.0000 0.0000 -10.4079 -23.1599 -47.8336 5.6636 14.0942 43.6162 0.1965 15.4109 -23.7645 0.5866 4.9039 13.6347 0.0000 0.0000 0.0000 31.7603 4.5049 -8.6140 -2.7934 -10.3529 30.1271 -3.3959 -13.6522 -41.4499 -0.1481 -2.4803 6.8349 7.8214 3.6523 -4.1366 -1.6791 4.7465 -7.3756 -6.0993 1.9247 -4.6415 28.9025 16.0875 3.7577 -17.2946 25.0993 17.5988 -7.3516 12.9425 11.0484 -0.0000 -0.0000 0.0000 -69.1221 27.4972 48.6934 94.4732 -59.9243 -63.8729 -0.0000 -0.0000 26.3562 -11.0057 10.4441 -2.0191 -7.1250 0.0000 -0.0000 -31.9134 38.3327 5.9906 -0.0000 -0.0000 0.0000 86.9214 -25.4546 10.3375 -12.5471 20.6200 -2.2913 0.0000 0.0000 28.5678 15.8919 -10.0266 -2.8378 7.1250 -0.0000 -0.0000 35.3285 -37.4915 7.7545
0.6675 14.7650 -16.1445 -361.5490 -16.7396 -345.3860 0.0000 0.0000 0.0000 -10.9203 -22.6663 -47.7235 5.7131 14.1444 43.8191 0.2173 14.9720 -23.3983 0.5125 4.5885 12.7385 0.0000 0.0000 0.0000 31.7048 4.5619 -8.6989 -2.8186 -10.3954 30.2670 -3.3993 -13.4912 -41.3635 -0.1525 -2.5164 6.9350 7.8628 3.6482 -4.1709 -1.6387 4.7374 -7.3407 -6.0760 1.9226 -4.5870 28.9025 16.1311 3.6866 -17.5481 25.1684 17.3368 -7.4187 12.9543 11.0221 -0.0000 -0.0000 0.0000 -69.3061 27.4757 48.1603 94.3197 -59.9294 -63.7400 -0.0000 -0.0000 26.9102 -10.2465 10.3410 -1.8585 -7.1250 0.0000 -0.0000 -31.2981 38.3141 5.8585 -0.0000 -0.0000 0.0000 86.4238 -25.2817 11.4049 -12.9728 21.2473 -2.4434 0.0000 0.0000 25.9675 13.3590 -9.2562 -2.1875 7.1250 -0.0000 -0.0000 33.1863 -37.0814 7.5167
0.6741 14.7709 -16.1788 -361.5410 -16.8977 -345.4650 0.0000 0.0000 0.0000 -11.4192 -22.1860 -47.6268 5.7728 14.2045 44.0629 0.2333 14.4212 -22.8577 0.4459 4.2845 11.8785 0.0000 0.0000 0.0000 31.6493 4.6292 -8.8036 -2.8447 -10.4394 30.4116 -3.4006 -13.3267 -41.2664 -0.1558 -2.5437 7.0107 7.9138 3.6500 -4.1954 -1.5960 4.7371 -7.3093 -6.0562 1.9240 -4.5398 28.8874 16.1707 3.6160 -17.8284 25.2364 17.0633 -7.4941 12.9638 10.9938 -0.0000 -0.0000 0.0000 -69.5461 27.4677 47.5893 94.2472 -59.9317 -63.6773 -0.0000 -0.0000 27.2836 -9.6436 10.3258 -1.7446 -7.1250 0.0000 -0.0000 -30.8335 38.3567 5.7102 -0.0000 -0.0000 0.0000 85.9324 -25.0840 12.4043 -13.4271 21.9098 -2.6105 0.0000 0.0000 23.2303 10.6962 -8.5352 -1.6058 7.1250 -0.0000 -0.0000 30.9492 -36.6966 7.1977
0.6813 14.7764 -16.2127 -361.5310 -17.0595 -345.5340 0.0000 0.0000 0.0000 -11.9043 -21.7479 -47.5216 5.8387 14.2702 44.3308 0.2473 13.7664 -22.1823 0.3941 4.0308 11.1635 0.0000 0.0000 0.0000 31.5878 4.7117 -8.9242 -2.8736 -10.4876 30.5707 -3.4004 -13.1749 -41.1707 -0.1579 -2.5603 7.0569 7.9649 3.6526 -4.2081 -1.5507 4.7389 -7.2782 -6.0346 1.9263 -4.4996 28.8543 16.2072 3.5552 -18.1379 25.3064 16.7713 -7.5784 12.9728 10.9604 0.0000 0.0000 0.0000 -69.8411 27.4748 46.9883 94.2559 -59.9314 -63.6849 -0.0000 -0.0000 27.4792 -9.1890 10.3997 -1.6726 -7.1250 0.0000 -0.0000 -30.5144 38.4630 5.5438 0.0000 0.0000 0.0000 85.4493 -24.8609 13.3542 -13.9208 22.6213 -2.7976 0.0000 0.0000 20.3170 7.9100 -7.9538 -1.1014 7.1250 -0.0000 -0.0000 28.6497 -36.4164 6.7518
0.6892 14.7816 -16.2459 -361.5110 -17.2238 -345.6010 0.0000 0.0000 0.0000 -12.3772 -21.3711 -47.3878 5.9070 14.3376 44.6074 0.2604 13.0274 -21.4118 0.3586 3.8473 10.6474 0.0000 0.0000 0.0000 31.5150 4.8076 -9.0527 -2.9058 -10.5410 30.7472 -3.4015 -13.0319 -41.0868 -0.1595 -2.5736 7.0937 8.0142 3.6554 -4.2028 -1.5083 4.7426 -7.2474 -6.0163 1.9291 -4.4694 28.8096 16.2398 3.5116 -18.4727 25.3776 16.4592 -7.6716 12.9823 10.9201 -0.0000 0.0000 0.0000 -70.1753 27.4956 46.3707 94.3370 -59.9288 -63.7550 -0.0000 -0.0000 27.5274 -8.8994 10.5406 -1.6408 -7.1250 0.0000 -0.0000 -30.3464 38.6131 5.3771 -0.0000 0.0000 0.0000 84.9871 -24.6089 14.2150 -14.4365 23.3553 -2.9990 0.0000 0.0000 17.2752 4.8882 -7.3256 -0.6248 7.1250 -0.0000 -0.0000 26.1334 -36.0848 6.2724
0.6976 14.7865 -16.2784 -361.4780 -17.3880 -345.6730 0.0000 0.0000 0.0000 -12.8358 -21.0654 -47.2175 5.9745 14.4036 44.8793 0.2714 12.2296 -20.5712 0.3390 3.7413 10.3499 0.0000 0.0000 0.0000 31.4298 4.9089 -9.1846 -2.9414 -10.5995 30.9408 -3.4049 -12.8927 -41.0166 -0.1613 -2.5877 7.1330 8.0568 3.6573 -4.1759 -1.4675 4.7470 -7.2180 -5.9974 1.9318 -4.4529 28.7485 16.2700 3.4799 -18.8193 25.4490 16.1377 -7.7681 12.9919 10.8747 0.0000 -0.0000 0.0000 -70.5435 27.5331 45.7454 94.4795 -59.9240 -63.8784 -0.0000 -0.0000 27.4790 -8.7576 10.7234 -1.6419 -7.1250 0.0000 -0.0000 -30.3080 38.7862 5.2209 0.0000 -0.0000 0.0000 84.5453 -24.3366 14.9564 -14.9950 24.1391 -3.2239 0.0000 0.0000 14.2478 1.8196 -6.7209 -0.2130 7.1250 -0.0000 -0.0000 23.5703 -35.7481 5.7671
0.7065 14.7908 -16.3095 -361.4380 -17.5583 -345.7560 0.0000 0.0000 0.0000 -13.2760 -20.8302 -46.9987 6.0385 14.4655 45.1360 0.2789 11.4117 -19.6933 0.3344 3.7161 10.2794 0.0000 0.0000 0.0000 31.3342 5.0113 -9.3076 -2.9793 -10.6615 31.1464 -3.4105 -12.7576 -40.9590 -0.1629 -2.6002 7.1675 8.0990 3.6595 -4.1274 -1.4297 4.7539 -7.1832 -5.9828 1.9356 -4.4423 28.6737 16.3013 3.4531 -19.1674 25.5215 15.8099 -7.8632 13.0022 10.8256 0.0000 -0.0000 0.0000 -70.9319 27.5833 45.1194 94.6816 -59.9170 -64.0532 -0.0000 -0.0000 27.3736 -8.7466 10.9236 -1.6700 -7.1250 0.0000 -0.0000 -30.3774 38.9627 5.0853 0.0000 -0.0000 0.0000 84.1302 -24.0355 15.5642 -15.6017 24.9776 -3.4761 0.0000 0.0000 11.3023 -1.2068 -6.1334 0.1290 7.1250 -0.0000 -0.0000 21.0328 -35.3960 5.2593
0.7159 14.7947 -16.3398 -361.3990 -17.7329 -345.8350 0.0000 0.0000 0.0000 -13.6775 -20.6615 -46.7577 6.0970 14.5217 45.3696 0.2845 10.5898 -18.8140 0.3447 3.7725 10.4375 0.0000 0.0000 0.0000 31.2384 5.1220 -9.4330 -3.0185 -10.7250 31.3578 -3.4168 -12.6262 -40.9073 -0.1645 -2.6132 7.2037 8.1447 3.6631 -4.0595 -1.3922 4.7643 -7.1519 -5.9718 1.9403 -4.4456 28.5860 16.3345 3.4288 -19.5043 25.5940 15.4859 -7.9525 13.0132 10.7746 -0.0000 0.0000 0.0000 -71.3310 27.6503 44.5079 94.9269 -59.9081 -64.2655 -0.0000 -0.0000 27.2487 -8.8330 11.1158 -1.7160 -7.1250 0.0000 -0.0000 -30.5196 39.1227 4.9779 -0.0000 0.0000 0.0000 83.7391 -23.7122 16.0119 -16.2640 25.8773 -3.7604 0.0000 0.0000 8.5818 -3.9931 -5.6903 0.3966 7.1250 -0.0000 -0.0000 18.7136 -35.1406 4.7436
0.7255 14.7983 -16.3691 -361.3660 -17.9091 -345.9050 0.0000 0.0000 0.0000 -14.0332 -20.5549 -46.5096 6.1484 14.5706 45.5743 0.2902 9.7865 -17.9831 0.3678 3.8958 10.7837 0.0000 0.0000 0.0000 31.1486 5.2386 -9.5574 -3.0571 -10.7870 31.5647 -3.4228 -12.5025 -40.8598 -0.1664 -2.6277 7.2439 8.1946 3.6678 -3.9786 -1.3566 4.7779 -7.1271 -5.9664 1.9454 -4.4624 28.4912 16.3697 3.4031 -19.8189 25.6646 15.1740 -8.0329 13.0244 10.7238 0.0000 -0.0000 0.0000 -71.7270 27.7345 43.9251 95.2080 -59.8973 -64.5087 -0.0000 -0.0000 27.1222 -9.0031 11.2906 -1.7768 -7.1250 0.0000 -0.0000 -30.7205 39.2594 4.9010 0.0000 -0.0000 0.0000 83.3787 -23.3653 16.3055 -16.9748 26.8245 -4.0759 0.0000 0.0000 6.0985 -6.5392 -5.4171 0.6200 7.1250 -0.0000 -0.0000 16.6166 -35.0173 4.2223
0.7349 14.8016 -16.3970 -361.3430 -18.0837 -345.9590 0.0000 0.0000 0.0000 -14.3300 -20.5057 -46.2687 6.1913 14.6112 45.7448 0.2963 9.0397 -17.2473 0.4001 4.0609 11.2481 0.0000 0.0000 0.0000 31.0732 5.3764 -9.6784 -3.0935 -10.8448 31.7583 -3.4265 -12.4040 -40.8168 -0.1683 -2.6433 7.2871 8.2491 3.6719 -3.9048 -1.3207 4.7900 -7.1053 -5.9628 1.9495 -4.4783 28.3998 16.4055 3.3855 -20.1182 25.7333 14.8647 -8.1088 13.0368 10.6706 0.0000 0.0000 0.0000 -72.1172 27.8332 43.3762 95.5218 -59.8845 -64.7801 -0.0000 -0.0000 27.0037 -9.2173 11.4443 -1.8442 -7.1250 0.0000 -0.0000 -30.9478 39.3731 4.8477 0.0000 0.0000 0.0000 83.0450 -22.9877 16.4738 -17.7174 27.7937 -4.4167 0.0000 0.0000 3.8253 -8.8841 -5.3349 0.8326 7.1250 -0.0000 -0.0000 14.7106 -35.0585 3.6932
0.7439 14.8049 -16.4229 -361.3310 -18.2659 -345.9960 0.0000 0.0000 0.0000 -14.5701 -20.5004 -46.0414 6.2238 14.6418 45.8734 0.3032 8.4015 -16.6615 0.4379 4.2465 11.7711 0.0000 0.0000 0.0000 31.0098 5.5353 -9.7876 -3.1259 -10.8961 31.9301 -3.4271 -12.3301 -40.7752 -0.1701 -2.6569 7.3250 8.3031 3.6773 -3.8435 -1.2849 4.8029 -7.0857 -5.9583 1.9541 -4.4895 28.3197 16.4428 3.3718 -20.4001 25.8011 14.5644 -8.1800 13.0509 10.6193 -0.0000 0.0000 0.0000 -72.4940 27.9428 42.8733 95.8624 -59.8697 -65.0748 -0.0000 -0.0000 26.8899 -9.4756 11.5846 -1.9197 -7.1250 0.0000 -0.0000 -31.2040 39.4704 4.8129 -0.0000 0.0000 0.0000 82.7370 -22.5791 16.5434 -18.4647 28.7481 -4.7706 0.0000 0.0000 1.7296 -11.1389 -5.3296 1.0478 7.1250 -0.0000 -0.0000 12.8798 -35.1668 3.1774
